<mxfile host="app.diagrams.net" modified="2023-04-13T21:59:27.052Z" agent="Mozilla/5.0 (Windows NT 10.0; Win64; x64) AppleWebKit/537.36 (KHTML, like Gecko) Chrome/112.0.0.0 Safari/537.36 Edg/112.0.1722.39" etag="hZSA2aZuWZ-nERpM5RLE" version="21.1.7" type="device">
  <diagram name="Page-1" id="Y7Nr0Ft3FKeqA8GHlqLD">
    <mxGraphModel dx="2017" dy="788" grid="1" gridSize="10" guides="1" tooltips="1" connect="1" arrows="1" fold="1" page="1" pageScale="1" pageWidth="827" pageHeight="1169" math="0" shadow="0">
      <root>
        <mxCell id="0" />
        <mxCell id="1" parent="0" />
        <mxCell id="ngZK3lVCmSARFCQLHR2R-2" value="" style="strokeWidth=1;shadow=0;dashed=0;align=center;html=1;shape=mxgraph.mockup.containers.browserWindow;rSize=0;strokeColor2=#008cff;strokeColor3=#c4c4c4;mainText=,;recursiveResize=0;" parent="1" vertex="1">
          <mxGeometry x="33" y="70" width="761" height="1010" as="geometry" />
        </mxCell>
        <mxCell id="ngZK3lVCmSARFCQLHR2R-3" value="Contact Page" style="strokeWidth=1;shadow=0;dashed=0;align=center;html=1;shape=mxgraph.mockup.containers.anchor;fontSize=17;fontColor=#666666;align=left;whiteSpace=wrap;" parent="ngZK3lVCmSARFCQLHR2R-2" vertex="1">
          <mxGeometry x="60" y="12" width="110" height="26" as="geometry" />
        </mxCell>
        <mxCell id="ngZK3lVCmSARFCQLHR2R-4" value="www.lukewardle.co.uk/contact" style="strokeWidth=1;shadow=0;dashed=0;align=center;html=1;shape=mxgraph.mockup.containers.anchor;rSize=0;fontSize=17;fontColor=#666666;align=left;" parent="ngZK3lVCmSARFCQLHR2R-2" vertex="1">
          <mxGeometry x="130" y="60" width="250" height="26" as="geometry" />
        </mxCell>
        <mxCell id="ngZK3lVCmSARFCQLHR2R-13" value="" style="ellipse;whiteSpace=wrap;html=1;fillColor=#000000;" parent="ngZK3lVCmSARFCQLHR2R-2" vertex="1">
          <mxGeometry x="30" y="130" width="60" height="30" as="geometry" />
        </mxCell>
        <mxCell id="ngZK3lVCmSARFCQLHR2R-15" value="" style="line;strokeWidth=2;html=1;" parent="ngZK3lVCmSARFCQLHR2R-2" vertex="1">
          <mxGeometry y="170" width="760" height="10" as="geometry" />
        </mxCell>
        <mxCell id="ngZK3lVCmSARFCQLHR2R-16" value="" style="ellipse;whiteSpace=wrap;html=1;" parent="ngZK3lVCmSARFCQLHR2R-2" vertex="1">
          <mxGeometry x="660" y="120" width="80" height="40" as="geometry" />
        </mxCell>
        <mxCell id="ngZK3lVCmSARFCQLHR2R-17" value="Menu" style="text;html=1;strokeColor=none;fillColor=none;align=center;verticalAlign=middle;whiteSpace=wrap;rounded=0;" parent="ngZK3lVCmSARFCQLHR2R-2" vertex="1">
          <mxGeometry x="650" y="125" width="60" height="30" as="geometry" />
        </mxCell>
        <mxCell id="ngZK3lVCmSARFCQLHR2R-19" value="" style="line;strokeWidth=2;html=1;" parent="ngZK3lVCmSARFCQLHR2R-2" vertex="1">
          <mxGeometry x="710" y="130" width="20" height="10" as="geometry" />
        </mxCell>
        <mxCell id="ngZK3lVCmSARFCQLHR2R-20" value="" style="line;strokeWidth=2;html=1;" parent="ngZK3lVCmSARFCQLHR2R-2" vertex="1">
          <mxGeometry x="710" y="135" width="20" height="10" as="geometry" />
        </mxCell>
        <mxCell id="ngZK3lVCmSARFCQLHR2R-21" value="" style="line;strokeWidth=2;html=1;" parent="ngZK3lVCmSARFCQLHR2R-2" vertex="1">
          <mxGeometry x="710" y="140" width="20" height="10" as="geometry" />
        </mxCell>
        <mxCell id="ngZK3lVCmSARFCQLHR2R-22" value="Logo" style="text;html=1;strokeColor=none;fillColor=none;align=center;verticalAlign=middle;whiteSpace=wrap;rounded=0;fontColor=#FFFFFF;" parent="ngZK3lVCmSARFCQLHR2R-2" vertex="1">
          <mxGeometry x="30" y="135" width="60" height="20" as="geometry" />
        </mxCell>
        <mxCell id="ngZK3lVCmSARFCQLHR2R-23" value="" style="rounded=0;whiteSpace=wrap;html=1;labelBackgroundColor=#1A1A1A;fillColor=#000000;" parent="ngZK3lVCmSARFCQLHR2R-2" vertex="1">
          <mxGeometry y="940" width="760" height="70" as="geometry" />
        </mxCell>
        <mxCell id="ngZK3lVCmSARFCQLHR2R-29" value="" style="strokeColor=#999999;verticalLabelPosition=bottom;shadow=0;dashed=0;verticalAlign=top;strokeWidth=2;html=1;shape=mxgraph.mockup.misc.copyrightIcon;" parent="ngZK3lVCmSARFCQLHR2R-2" vertex="1">
          <mxGeometry x="30" y="962.5" width="25" height="25" as="geometry" />
        </mxCell>
        <mxCell id="ngZK3lVCmSARFCQLHR2R-5" value="&lt;font style=&quot;font-size: 15px;&quot;&gt;Contact Page&lt;/font&gt;" style="text;html=1;strokeColor=none;fillColor=none;align=center;verticalAlign=middle;whiteSpace=wrap;rounded=0;" parent="1" vertex="1">
          <mxGeometry x="80" y="10" width="640" height="30" as="geometry" />
        </mxCell>
        <mxCell id="XMqedt6ttRRI5glgOud--1" value="" style="rounded=0;whiteSpace=wrap;html=1;fillColor=#4D4D4D;" vertex="1" parent="1">
          <mxGeometry x="30" y="246" width="764" height="764" as="geometry" />
        </mxCell>
        <mxCell id="ngZK3lVCmSARFCQLHR2R-35" value="" style="verticalLabelPosition=bottom;verticalAlign=top;html=1;shape=mxgraph.basic.rect;fillColor2=none;strokeWidth=1;size=20;indent=5;fillColor=#ffe6cc;strokeColor=#d79b00;gradientColor=#FF3333;gradientDirection=east;" parent="1" vertex="1">
          <mxGeometry x="30" y="360" width="763" height="430" as="geometry" />
        </mxCell>
        <mxCell id="XMqedt6ttRRI5glgOud--2" value="First Name" style="strokeWidth=1;shadow=0;dashed=0;align=center;html=1;shape=mxgraph.mockup.forms.anchor;align=right;spacingRight=2;fontColor=#666666;" vertex="1" parent="1">
          <mxGeometry x="130" y="435" width="50" height="18" as="geometry" />
        </mxCell>
        <mxCell id="XMqedt6ttRRI5glgOud--3" value="john@jgraph.com" style="strokeWidth=1;shadow=0;dashed=0;align=center;html=1;shape=mxgraph.mockup.forms.rrect;fillColor=#ffffff;rSize=0;fontColor=#666666;align=left;spacingLeft=3;strokeColor=#999999;" vertex="1" parent="1">
          <mxGeometry x="210" y="435" width="100" height="18" as="geometry" />
        </mxCell>
        <mxCell id="XMqedt6ttRRI5glgOud--4" value="Last Name" style="strokeWidth=1;shadow=0;dashed=0;align=center;html=1;shape=mxgraph.mockup.forms.anchor;align=right;spacingRight=2;fontColor=#666666;" vertex="1" parent="1">
          <mxGeometry x="360" y="435" width="66" height="18" as="geometry" />
        </mxCell>
        <mxCell id="XMqedt6ttRRI5glgOud--5" value="Greeting" style="strokeWidth=1;shadow=0;dashed=0;align=center;html=1;shape=mxgraph.mockup.forms.rrect;fillColor=#ffffff;rSize=0;fontColor=#666666;align=left;spacingLeft=3;strokeColor=#999999;" vertex="1" parent="1">
          <mxGeometry x="450" y="435" width="160" height="18" as="geometry" />
        </mxCell>
        <mxCell id="XMqedt6ttRRI5glgOud--6" value="Email Address" style="strokeWidth=1;shadow=0;dashed=0;align=center;html=1;shape=mxgraph.mockup.forms.anchor;align=right;spacingRight=2;fontColor=#666666;" vertex="1" parent="1">
          <mxGeometry x="150" y="470" width="50" height="18" as="geometry" />
        </mxCell>
        <mxCell id="XMqedt6ttRRI5glgOud--7" value="fred@jgraph.com" style="strokeWidth=1;shadow=0;dashed=0;align=center;html=1;shape=mxgraph.mockup.forms.rrect;fillColor=#ffffff;rSize=0;fontColor=#666666;align=left;spacingLeft=3;strokeColor=#999999;" vertex="1" parent="1">
          <mxGeometry x="210" y="470" width="400" height="18" as="geometry" />
        </mxCell>
        <mxCell id="XMqedt6ttRRI5glgOud--12" value="Lorem ipsum dolor sit amet, consectetur adipisicing elit, sed do eiusmod tempor incididunt ut labore et dolore magna aliqua. Ut enim ad minim veniam, quis nostrud exercitation ullamco laboris nisi ut aliquip ex ea commodo consequat. Duis aute irure dolor in reprehenderit in voluptate velit esse cillum dolore eu fugiat nulla pariatur. Excepteur sint occaecat cupidatat non proident, sunt in culpa qui officia deserunt mollit anim id est laborum." style="strokeWidth=1;shadow=0;dashed=0;align=center;html=1;shape=mxgraph.mockup.forms.rrect;fillColor=#ffffff;rSize=0;fontColor=#666666;align=left;spacingLeft=3;strokeColor=#999999;verticalAlign=top;whiteSpace=wrap;" vertex="1" parent="1">
          <mxGeometry x="210" y="510" width="400" height="125" as="geometry" />
        </mxCell>
        <mxCell id="XMqedt6ttRRI5glgOud--14" value="Message" style="strokeWidth=1;shadow=0;dashed=0;align=center;html=1;shape=mxgraph.mockup.forms.anchor;align=right;spacingRight=2;fontColor=#666666;" vertex="1" parent="1">
          <mxGeometry x="120" y="510" width="50" height="18" as="geometry" />
        </mxCell>
        <mxCell id="XMqedt6ttRRI5glgOud--15" value="Send" style="strokeWidth=1;shadow=0;dashed=0;align=center;html=1;shape=mxgraph.mockup.buttons.button;strokeColor=#666666;fontColor=#ffffff;mainText=;buttonStyle=round;fontSize=17;fontStyle=1;fillColor=#008cff;whiteSpace=wrap;" vertex="1" parent="1">
          <mxGeometry x="520" y="650" width="90" height="30" as="geometry" />
        </mxCell>
      </root>
    </mxGraphModel>
  </diagram>
</mxfile>
